HIERARCHY
ROOT root
{
	OFFSET 0.000000 0.000000 0.000000
	CHANNELS 6 Xposition Yposition Zposition Zrotation Yrotation Xrotation
	JOINT lhip
	{
		OFFSET 0.058581 -0.082280 -0.017664
		CHANNELS 3 Zrotation Yrotation Xrotation
		JOINT lknee
		{
			OFFSET 0.043451 -0.386469 0.008037
			CHANNELS 3 Zrotation Yrotation Xrotation
			JOINT lankle
			{
				OFFSET -0.014790 -0.426874 -0.037428
				CHANNELS 3 Zrotation Yrotation Xrotation
				JOINT ltoe
				{
					OFFSET 0.041054 -0.060286 0.122042
					CHANNELS 3 Zrotation Yrotation Xrotation
					End Site
					{
						OFFSET 0.000000 0.000000 0.000000
					}
				}
			}
		}
	}
	JOINT rhip
	{
		OFFSET -0.060310 -0.090513 -0.013543
		CHANNELS 3 Zrotation Yrotation Xrotation
		JOINT rknee
		{
			OFFSET -0.043257 -0.383688 -0.004843
			CHANNELS 3 Zrotation Yrotation Xrotation
			JOINT rankle
			{
				OFFSET 0.019056 -0.420046 -0.034562
				CHANNELS 3 Zrotation Yrotation Xrotation
				JOINT rtoe
				{
					OFFSET -0.034840 -0.062106 0.130323
					CHANNELS 3 Zrotation Yrotation Xrotation
					End Site
					{
						OFFSET 0.000000 0.000000 0.000000
					}
				}
			}
		}
	}
	JOINT lowerback
	{
		OFFSET 0.004439 0.124404 -0.038385
		CHANNELS 3 Zrotation Yrotation Xrotation
		JOINT upperback
		{
			OFFSET 0.004488 0.137956 0.026820
			CHANNELS 3 Zrotation Yrotation Xrotation
			JOINT chest
			{
				OFFSET -0.002265 0.056032 0.002855
				CHANNELS 3 Zrotation Yrotation Xrotation
				JOINT lowerneck
				{
					OFFSET -0.013390 0.211636 -0.033468
					CHANNELS 3 Zrotation Yrotation Xrotation
					JOINT upperneck
					{
						OFFSET 0.010113 0.088937 0.050410
						CHANNELS 3 Zrotation Yrotation Xrotation
						End Site
						{
							OFFSET 0.000000 0.000000 0.000000
						}
					}
				}
				JOINT lclavicle
				{
					OFFSET 0.071702 0.114000 -0.018898
					CHANNELS 3 Zrotation Yrotation Xrotation
					JOINT lshoulder
					{
						OFFSET 0.122921 0.045205 -0.019046
						CHANNELS 3 Zrotation Yrotation Xrotation
						JOINT lelbow
						{
							OFFSET 0.255332 -0.015649 -0.022946
							CHANNELS 3 Zrotation Yrotation Xrotation
							JOINT lwrist
							{
								OFFSET 0.265709 0.012698 -0.007375
								CHANNELS 3 Zrotation Yrotation Xrotation
								End Site
								{
									OFFSET 0.000000 0.000000 0.000000
								}
							}
						}
					}
				}
				JOINT rclavicle
				{
					OFFSET -0.082954 0.112472 -0.023707
					CHANNELS 3 Zrotation Yrotation Xrotation
					JOINT rshoulder
					{
						OFFSET -0.113228 0.046853 -0.008472
						CHANNELS 3 Zrotation Yrotation Xrotation
						JOINT relbow
						{
							OFFSET -0.260127 -0.014369 -0.031269
							CHANNELS 3 Zrotation Yrotation Xrotation
							JOINT rwrist
							{
								OFFSET -0.269108 0.006794 -0.006027
								CHANNELS 3 Zrotation Yrotation Xrotation
								End Site
								{
									OFFSET 0.000000 0.000000 0.000000
								}
							}
						}
					}
				}
			}
		}
	}
}
MOTION
Frames: 10
Frame Time: 0.033333
-1.697083 0.276858 1.010052 93.576530 1.671716 88.967997 2.177657 1.887478 2.755798 -1.722901 -6.489218 4.098993 4.517006 10.076054 -15.520046 0.000000 -0.000000 0.000000 0.623895 -2.526812 -3.380475 -0.052586 -1.575781 13.376954 2.405354 -6.202644 -14.523249 0.000000 -0.000000 0.000000 1.051176 0.494763 7.600244 0.213263 -1.617422 -3.634814 -0.525792 -0.678341 -1.796201 3.864610 -0.380263 -3.782983 2.071630 -5.782232 3.331584 -23.744575 1.130178 1.567644 -61.048877 -6.402578 10.993801 4.979465 -24.505973 17.975880 2.258563 -0.120110 2.831820 21.856555 2.461033 0.690420 64.026696 3.324667 17.478715 -9.081130 24.660501 12.742297 -11.108490 0.064918 3.868522 
-1.696931 0.277220 1.009833 93.617119 1.536398 89.151026 2.037848 1.775113 2.589328 -1.783293 -6.419739 4.059574 4.819313 10.108913 -15.317637 0.000000 -0.000000 0.000000 0.452645 -2.326263 -3.458050 0.016343 -1.480751 13.258597 2.693078 -6.596119 -14.596613 0.000000 -0.000000 0.000000 1.145795 0.541447 7.213235 0.117936 -1.614313 -3.352602 -0.775867 -0.665837 -1.898033 3.773549 -0.583467 -3.423934 2.085188 -5.841692 3.089565 -23.873574 1.066554 1.677795 -60.885865 -6.516862 11.134975 5.571299 -24.669169 17.152661 1.468595 1.441765 1.475918 21.791159 2.528456 0.693019 64.402933 3.042758 18.011980 -9.388278 25.131983 12.971493 -10.751902 -0.923027 3.195048 
-1.696411 0.277918 1.009644 93.569040 1.423492 89.176633 1.902416 1.793247 2.671582 -1.800127 -6.375029 3.925708 4.787143 10.087905 -15.271187 0.000000 -0.000000 0.000000 0.287093 -2.333837 -3.409752 0.002930 -1.458035 13.211492 2.740225 -6.551441 -14.595575 0.000000 -0.000000 0.000000 1.406106 0.558113 7.074292 -0.100760 -1.506252 -3.264899 -1.055895 -0.623189 -1.936714 3.689778 -0.702677 -3.325891 2.028904 -6.023862 3.409371 -24.105140 0.991051 1.688112 -60.638343 -6.578799 11.053732 5.918418 -24.179079 16.760364 1.691264 1.128425 1.769911 21.844187 2.507145 0.662255 64.566533 2.866721 18.093702 -9.253529 25.351923 13.178257 -10.618067 -0.826417 2.978029 
-1.695924 0.278520 1.009611 93.470234 1.342701 89.166281 1.811041 1.996374 2.731595 -1.838346 -6.326505 3.876567 4.918836 9.936788 -15.269656 0.000000 -0.000000 0.000000 0.178034 -2.412078 -3.429820 -0.029315 -1.340881 13.308248 2.550292 -6.510594 -14.581595 0.000000 -0.000000 0.000000 1.888298 0.440246 7.137016 -0.336818 -1.342799 -3.134814 -0.966359 -1.082931 -2.314383 2.812611 -0.949182 -2.629249 1.677866 -4.136557 2.095518 -24.995717 1.275314 1.182077 -60.045658 -5.899075 10.350290 5.985943 -24.125291 16.531278 2.055906 1.528683 1.653936 21.041012 2.871848 1.290953 65.200776 3.277876 18.041360 -8.978057 25.359475 13.374081 -10.652457 -0.729316 3.235528 
-1.695826 0.278918 1.009575 93.429222 1.291698 89.167243 1.740692 2.093580 2.749763 -1.841267 -6.342501 3.836218 4.968073 9.891340 -15.266640 0.000000 -0.000000 0.000000 0.100425 -2.432731 -3.483124 -0.041124 -1.326795 13.408729 2.520359 -6.476351 -14.627037 0.000000 -0.000000 0.000000 1.994766 0.427126 7.163984 -0.427625 -1.240138 -3.123713 -0.973165 -1.166246 -2.381309 2.615265 -1.106000 -2.436913 1.543470 -3.874005 2.119417 -25.247871 1.358408 1.055586 -59.965120 -5.832794 10.198149 6.124727 -23.975531 16.251272 2.139755 1.559641 1.707980 21.007274 2.912207 1.422807 65.131334 3.326160 18.022780 -8.816245 25.466953 13.472206 -10.509897 -0.559850 3.354935 
-1.695806 0.279339 1.009220 93.422565 1.249620 89.243928 1.674750 1.898964 2.743807 -1.866368 -6.218823 3.710856 4.826261 9.977581 -15.209055 0.000000 -0.000000 0.000000 0.020702 -2.308125 -3.587050 -0.053126 -1.426291 13.471675 2.722582 -6.495185 -14.714250 0.000000 -0.000000 0.000000 1.927535 0.485867 6.950049 -0.463785 -1.174257 -3.159446 -1.402895 -0.555963 -1.919870 3.206012 -1.115382 -3.028539 1.707773 -5.940651 3.830573 -24.599149 1.058007 1.443041 -60.706411 -6.742981 10.834394 6.705546 -23.338138 15.484737 2.085041 1.216168 1.600205 21.897768 2.408718 0.697854 64.413534 2.823197 18.234369 -8.717105 25.956268 13.759909 -10.016182 -0.381549 2.888824 
-1.695523 0.279535 1.008930 93.408242 1.257307 89.295184 1.695577 1.958908 2.708198 -1.901528 -6.200107 3.707447 4.836249 9.894267 -15.233447 0.000000 -0.000000 0.000000 0.019504 -2.290425 -3.650028 -0.082494 -1.482303 13.532361 2.661599 -6.447125 -14.719295 0.000000 -0.000000 0.000000 1.980409 0.427121 6.883028 -0.434919 -1.157775 -3.054422 -1.343353 -0.588673 -1.906160 3.073818 -1.167054 -2.854096 1.654209 -5.599446 3.304421 -24.665788 1.165810 1.382261 -60.877016 -6.645397 10.864961 6.591964 -23.564135 15.757541 2.004448 1.257406 1.362492 21.731080 2.380739 0.720891 64.498069 3.017742 18.221703 -8.703959 25.943314 13.893255 -10.095611 -0.414496 2.919409 
-1.695311 0.279621 1.008851 93.393961 1.264690 89.375118 1.704234 1.879622 2.630399 -1.937276 -6.208117 3.723367 4.846015 9.990904 -15.243003 0.000000 -0.000000 0.000000 0.035825 -2.159793 -3.730390 -0.068206 -1.463840 13.546031 2.657177 -6.597394 -14.741187 0.000000 -0.000000 0.000000 1.876702 0.428537 6.725377 -0.311243 -1.143272 -3.055970 -1.329707 -0.591611 -1.822793 3.223772 -1.176444 -2.917195 1.485645 -6.081776 4.106923 -24.687828 1.180033 1.626309 -61.022047 -6.690546 11.089897 6.544252 -23.775821 15.886738 1.889278 1.139995 1.300413 22.027256 2.406416 0.764145 64.199509 3.072712 18.267049 -8.924143 25.854256 13.571872 -10.151853 -0.424590 2.792676 
-1.694942 0.279610 1.008593 93.414267 1.286694 89.398765 1.742270 1.891634 2.607033 -1.952323 -6.217695 3.762359 4.837931 9.976023 -15.292901 0.000000 -0.000000 0.000000 0.068798 -2.126021 -3.747997 -0.080920 -1.496768 13.583373 2.669369 -6.637706 -14.761711 0.000000 -0.000000 0.000000 1.754466 0.421080 6.708531 -0.158253 -1.165786 -2.994384 -1.186899 -0.689651 -1.745379 3.274781 -1.160553 -2.933512 1.422587 -6.101948 4.028620 -24.741352 1.355057 1.609902 -61.143431 -6.641773 11.224846 6.223629 -24.132207 16.369179 1.714492 1.101489 1.226316 22.051018 2.279203 0.655405 64.087679 3.247046 18.245827 -9.012141 25.720099 13.413759 -10.204451 -0.483250 2.921661 
-1.694454 0.279363 1.008470 93.421740 1.303812 89.373585 1.781346 1.967592 2.664962 -1.949926 -6.219234 3.748025 4.893717 9.925925 -15.322199 0.000000 -0.000000 0.000000 0.114932 -2.072074 -3.723862 -0.098866 -1.539850 13.644442 2.595820 -6.696642 -14.785657 0.000000 -0.000000 0.000000 1.580799 0.390293 6.777974 0.020796 -1.255782 -2.979649 -0.901648 -0.907105 -1.910242 3.312245 -1.132983 -2.334614 1.326368 -5.315944 3.747851 -24.903958 1.523549 1.655976 -61.193035 -6.337680 11.178935 5.830203 -24.523385 16.918021 1.595929 1.052930 1.178957 21.908345 2.324862 0.995699 64.131700 3.580679 18.114670 -9.184542 25.465385 13.149701 -10.352676 -0.478851 3.124942 
